<svg width="16" height="16" viewBox="0 0 16 16" fill="none" xmlns="http://www.w3.org/2000/svg">
<path d="M12.3579 13.0447C11.1482 14.0929 9.60059 14.6689 7.99992 14.6667C4.31792 14.6667 1.33325 11.682 1.33325 8.00004C1.33325 4.31804 4.31792 1.33337 7.99992 1.33337C11.6819 1.33337 14.6666 4.31804 14.6666 8.00004C14.6666 9.42404 14.2199 10.744 13.4599 11.8267L11.3333 8.00004H13.3333C13.3332 6.77085 12.9085 5.57942 12.131 4.6273C11.3536 3.67519 10.2712 3.02084 9.06681 2.77495C7.86246 2.52906 6.61014 2.70672 5.5217 3.27788C4.43327 3.84905 3.57553 4.77865 3.0936 5.90943C2.61167 7.04021 2.53512 8.30275 2.87691 9.48347C3.2187 10.6642 3.95785 11.6906 4.96931 12.3891C5.98077 13.0876 7.20245 13.4152 8.42768 13.3166C9.65292 13.218 10.8065 12.6993 11.6933 11.848L12.3579 13.0447Z" fill="black"/>
</svg>
