<svg width="91" height="36" viewBox="0 0 91 36" fill="none" xmlns="http://www.w3.org/2000/svg">
<rect x="0.5" y="0.5" width="90" height="35" rx="1.5" fill="white"/>
<path d="M28.3579 23.0447C27.1482 24.0929 25.6006 24.6689 23.9999 24.6667C20.3179 24.6667 17.3333 21.682 17.3333 18C17.3333 14.318 20.3179 11.3334 23.9999 11.3334C27.6819 11.3334 30.6666 14.318 30.6666 18C30.6666 19.424 30.2199 20.744 29.4599 21.8267L27.3333 18H29.3333C29.3332 16.7708 28.9085 15.5794 28.131 14.6273C27.3536 13.6752 26.2712 13.0208 25.0668 12.7749C23.8625 12.5291 22.6101 12.7067 21.5217 13.2779C20.4333 13.849 19.5755 14.7786 19.0936 15.9094C18.6117 17.0402 18.5351 18.3027 18.8769 19.4835C19.2187 20.6642 19.9578 21.6906 20.9693 22.3891C21.9808 23.0876 23.2024 23.4152 24.4277 23.3166C25.6529 23.218 26.8065 22.6993 27.6933 21.848L28.3579 23.0447Z" fill="black"/>
<path d="M41.0938 23H42.625V19.2129H44.7305L46.7402 23H48.5039L46.2959 18.9805C47.4785 18.5771 48.21 17.5107 48.21 16.1709V16.1572C48.21 14.3047 46.9385 13.1357 44.9219 13.1357H41.0938V23ZM42.625 17.9551V14.4209H44.7305C45.9062 14.4209 46.6309 15.0771 46.6309 16.1709V16.1846C46.6309 17.3057 45.9541 17.9551 44.7715 17.9551H42.625ZM52.5576 23.1436C54.3008 23.1436 55.4082 22.1045 55.6406 20.9629L55.6543 20.8877H54.2529L54.2324 20.9424C54.0479 21.4824 53.4668 21.9336 52.5918 21.9336C51.416 21.9336 50.6709 21.1406 50.6436 19.7803H55.7363V19.2812C55.7363 17.1211 54.499 15.6719 52.4824 15.6719C50.4658 15.6719 49.167 17.1758 49.167 19.4248V19.4316C49.167 21.7012 50.4453 23.1436 52.5576 23.1436ZM52.4893 16.8818C53.4531 16.8818 54.1504 17.4902 54.2734 18.7344H50.6641C50.7939 17.5312 51.5322 16.8818 52.4893 16.8818ZM59.5781 23.1436C61.2734 23.1436 62.5039 22.2412 62.5039 20.9287V20.9219C62.5039 19.8896 61.9434 19.3086 60.4736 18.9668L59.3047 18.7002C58.5322 18.5156 58.2383 18.2148 58.2383 17.7705V17.7637C58.2383 17.1895 58.7373 16.8135 59.5303 16.8135C60.3643 16.8135 60.8564 17.251 60.9453 17.8799L60.9521 17.9277H62.3398L62.333 17.8457C62.2578 16.6221 61.2324 15.6719 59.5303 15.6719C57.876 15.6719 56.7549 16.5537 56.7549 17.8389V17.8457C56.7549 18.8916 57.4316 19.5479 58.7988 19.8623L59.9746 20.1289C60.7471 20.3135 61.0068 20.5801 61.0068 21.0449V21.0518C61.0068 21.6328 60.4736 22.002 59.585 22.002C58.6758 22.002 58.1836 21.6123 58.0469 20.9492L58.0332 20.8809H56.5703L56.5771 20.9424C56.7275 22.2549 57.7803 23.1436 59.5781 23.1436ZM66.7217 23.1436C68.4648 23.1436 69.5723 22.1045 69.8047 20.9629L69.8184 20.8877H68.417L68.3965 20.9424C68.2119 21.4824 67.6309 21.9336 66.7559 21.9336C65.5801 21.9336 64.835 21.1406 64.8076 19.7803H69.9004V19.2812C69.9004 17.1211 68.6631 15.6719 66.6465 15.6719C64.6299 15.6719 63.3311 17.1758 63.3311 19.4248V19.4316C63.3311 21.7012 64.6094 23.1436 66.7217 23.1436ZM66.6533 16.8818C67.6172 16.8818 68.3145 17.4902 68.4375 18.7344H64.8281C64.958 17.5312 65.6963 16.8818 66.6533 16.8818ZM73.5713 23.1436C73.8721 23.1436 74.1523 23.1094 74.3232 23.082V21.9404C74.2139 21.9541 74.084 21.9678 73.9268 21.9678C73.3047 21.9678 72.9766 21.749 72.9766 21.0176V16.9844H74.3232V15.8086H72.9766V13.9355H71.4658V15.8086H70.4336V16.9844H71.4658V21.1064C71.4658 22.542 72.1494 23.1436 73.5713 23.1436Z" fill="black"/>
<rect x="0.5" y="0.5" width="90" height="35" rx="1.5" stroke="white"/>
</svg>
